<svg id="Слой_1" data-name="Слой 1" xmlns="http://www.w3.org/2000/svg" viewBox="0 0 415.81 80.66"><title>dron</title><path d="M100.56,40.69l-3.8-3.8c-5.69-6-5.69-8.86,0-14.87L113.85,4.94c1.58-1.9.16-4-2.69-4H96a7.85,7.85,0,0,0-6,2.53l-17.4,17.4c-1.42,1.27-4,3.8-8.22,3.8H32.71c-5.06,0-10.6,1.58-13.92,5.06L7.88,40.69c-9.17,9.33-9.17,15.66,0,25L18.79,76.59c3.32,3.48,8.86,5.06,13.92,5.06h43c5.06,0,10.6-1.58,13.92-5.06l10.91-10.91C109.74,56.35,109.74,50,100.56,40.69ZM80.32,60.62l-7.75,7.75c-1.42,1.27-4,3.8-8.22,3.8H44.1c-4.27,0-6.8-2.53-8.22-3.8l-7.75-7.75c-5.69-6-5.69-8.86,0-14.87L35.87,38c1.42-1.27,4-3.8,8.22-3.8H64.34c4.27,0,6.8,2.53,8.22,3.8l7.75,7.75C86,51.76,86,54.61,80.32,60.62ZM195.14,48.44H135.2c-5.06,0-10.6,1.58-13.92,5.06L97.08,77.7c-1.58,1.9-.16,4,2.69,4H115a7.85,7.85,0,0,0,6-2.53l17.4-17.4c1.42-1.27,4-3.8,8.22-3.8h43.34a9.5,9.5,0,0,0,6.33-2.06l3.16-3.16C201.79,50.34,199.41,48.44,195.14,48.44Zm214.78-7.75L399,29.78c-3.32-3.48-8.86-5.06-13.92-5.06h-43c-5.06,0-10.6,1.58-13.92,5.06L317.24,40.69a32.8,32.8,0,0,0-4.9,6.12,32.8,32.8,0,0,0-4.9-6.12L296.52,29.78c-3.32-3.48-8.86-5.06-13.92-5.06h-43c-5.06,0-10.6,1.58-13.92,5.06L214.75,40.69c-9.17,9.33-9.17,15.66,0,25l10.91,10.91c3.32,3.48,8.86,5.06,13.92,5.06h43c5.06,0,10.6-1.58,13.92-5.06l10.91-10.91a32.8,32.8,0,0,0,4.9-6.12,32.8,32.8,0,0,0,4.9,6.12l8.38,8.38a7.85,7.85,0,0,0,6,2.53h15.18c2.85,0,4.27-2.06,2.69-4l-12-12c-5.69-6-5.69-8.86,0-14.87L345.24,38c1.42-1.27,4-3.8,8.22-3.8h20.24c4.27,0,6.8,2.53,8.22,3.8l7.75,7.75c5.69,6,5.69,8.86,0,14.87l-12,12c-1.58,1.9-.16,4,2.69,4h15.18a7.85,7.85,0,0,0,6-2.53l8.38-8.38C419.1,56.35,419.1,50,409.93,40.69ZM287.19,60.62l-7.75,7.75c-1.42,1.27-4,3.8-8.22,3.8H251c-4.27,0-6.8-2.53-8.22-3.8L235,60.62c-5.69-6-5.69-8.86,0-14.87L242.75,38c1.42-1.27,4-3.8,8.22-3.8h20.24c4.27,0,6.8,2.53,8.22,3.8l7.75,7.75C292.89,51.76,292.89,54.61,287.19,60.62Z" transform="translate(-1 -0.99)" style="fill:#884845"/></svg>